Source : NGB

Format : AVI
Format/Info : Audio Video Interleave
File size : 701 MiB
Duration : 1h 37mn
Overall bit rate : 1 000 Kbps
Writing library : VirtualDub build 32842/release

Video
ID : 0
Format : MPEG-4 Visual
Format profile : Advanced Simple@L5
Format settings, BVOP : 4
Format settings, QPel : No
Format settings, GMC : No warppoints
Format settings, Matrix : Default (H.263)
Muxing mode : Packed bitstream
Codec ID : XVID
Codec ID/Hint : XviD
Duration : 1h 37mn
Bit rate : 863 Kbps
Width : 640 pixels
Height : 352 pixels
Display aspect ratio : 16:9
Frame rate : 23.976 fps
Color space : YUV
Chroma subsampling : 4:2:0
Bit depth : 8 bits
Scan type : Progressive
Compression mode : Lossy
Bits/(Pixel*Frame) : 0.160
Stream size : 605 MiB (86%)
Writing library : XviD 64

Audio
ID : 1
Format : MPEG Audio
Format version : Version 1
Format profile : Layer 3
Codec ID : 55
Codec ID/Hint : MP3
Duration : 1h 37mn
Bit rate mode : Constant
Bit rate : 128 Kbps
Channel(s) : 2 channels
Sampling rate : 44.1 KHz
Compression mode : Lossy
Stream size : 89.7 MiB (13%)
Alignment : Split accross interleaves
Interleave, duration : 42 ms (1.00 video frame)
Interleave, preload duration : 500 ms
Writing library : LAME3.99r
Encoding settings : -m s -V 4 -q 3 -lowpass 17 -b 128


Plot
A woman's idyllic life is shattered when her husband is killed in a senseless act of violence. As she prepares to take matters into her own hands, two unexpected encounters begin to change everything.

 
http://www.shotpix.com/images/84357786953377843332.png 
http://www.shotpix.com/images/14582535211750212592.png 
http://www.shotpix.com/images/10893424394370661497.png